<?xml version="1.0" encoding="utf-8"?>
<!-- Generator: Adobe Illustrator 16.0.0, SVG Export Plug-In . SVG Version: 6.00 Build 0)  -->
<!DOCTYPE svg PUBLIC "-//W3C//DTD SVG 1.1//EN" "http://www.w3.org/Graphics/SVG/1.1/DTD/svg11.dtd">
<svg version="1.1" id="Layer_1" xmlns="http://www.w3.org/2000/svg" xmlns:xlink="http://www.w3.org/1999/xlink" x="0px" y="0px"
	 width="821.428px" height="321.428px" viewBox="0 0 821.428 321.428" enable-background="new 0 0 821.428 321.428"
	 xml:space="preserve">
<g>
	<path fill="#3E4651" d="M318.98,145.342h9.027v7.943c0,0,9.268-6.98,20.943-9.148v9.389c-11.314,2.166-20.943,8.307-20.943,8.307
		v43.688h-9.027V145.342z"/>
	<path fill="#3E4651" d="M404.437,197.456l0.241,7.344c0,0-13.601,1.926-23.35,1.926c-18.055,0-23.951-10.473-23.951-30.932
		c0-22.869,9.989-31.656,25.275-31.656c15.887,0,24.193,8.428,24.193,28.164l-0.482,6.982h-39.839
		c0.121,12.637,3.972,19.258,15.889,19.258C391.439,198.542,404.437,197.456,404.437,197.456z M397.818,171.942
		c0-14.443-4.694-19.738-15.166-19.738c-10.352,0-16.129,5.656-16.129,19.738H397.818z"/>
	<path fill="#3E4651" d="M464.498,193.366c0.242,3.852,3.129,5.055,6.981,5.535l-0.361,7.824c-7.221,0-11.072-1.324-14.202-4.574
		c0,0-10.833,4.574-22.267,4.574c-10.471,0-16.37-6.621-16.37-18.414c0-11.555,5.899-16.73,18.296-17.814l19.019-1.805v-4.934
		c0-7.584-3.852-10.955-10.472-10.955c-8.786,0-22.991,1.564-22.991,1.564l-0.36-7.822c0,0,14.443-2.408,23.713-2.408
		c12.758,0,19.015,6.02,19.015,19.621V193.366z M437.778,177.477c-7.341,0.723-10.35,4.455-10.35,10.592
		c0,6.982,3.13,10.832,8.544,10.832c9.149,0,19.621-3.609,19.621-3.609v-19.258L437.778,177.477z"/>
	<path fill="#3E4651" d="M522.517,145.944l-0.24,7.822c0,0-9.628-1.082-14.205-1.082c-13.842,0-17.571,5.777-17.571,21.664
		c0,17.572,2.769,23.951,17.571,23.951c4.577,0,14.323-1.082,14.323-1.082l0.36,7.822c0,0-11.311,1.686-16.728,1.686
		c-19.258,0-24.796-8.787-24.796-32.377c0-21.783,6.981-30.211,24.914-30.211C511.684,144.137,522.517,145.944,522.517,145.944z"/>
	<path fill="#3E4651" d="M538.288,205.52v-87.859h9.024v30.57c0,0,10.112-4.094,18.536-4.094c16.609,0,20.34,8.186,20.34,29.971
		v31.412h-9.024v-31.293c0-15.885-1.809-21.785-12.642-21.785c-8.063,0-17.21,3.492-17.21,3.492v49.586H538.288z"/>
	<path fill="#2FAA60" d="M620.973,205.52h-8.907v-51.994h-7.581v-8.184h7.581v-5.418c0-17.33,4.334-21.904,16.129-21.904
		c4.212,0,12.158,0.842,12.158,0.842l-0.122,7.463c0,0-6.738-0.24-10.229-0.24c-6.741,0-9.028,2.889-9.028,13.961v5.297h17.575
		v8.184h-17.575V205.52z"/>
	<path fill="#2FAA60" d="M651.067,121.27h8.908v10.473h-8.908V121.27z M651.067,145.342h8.908v60.178h-8.908V145.342z"/>
	<path fill="#2FAA60" d="M682.001,145.342l14.441,52.475h4.455l14.685-52.475h9.146l-17.092,60.178h-18.054l-16.971-60.178H682.001z
		"/>
	<path fill="#2FAA60" d="M780.819,197.456l0.239,7.344c0,0-13.598,1.926-23.349,1.926c-18.054,0-23.951-10.473-23.951-30.932
		c0-22.869,9.988-31.656,25.273-31.656c15.889,0,24.195,8.428,24.195,28.164l-0.482,6.982h-39.841
		c0.122,12.637,3.974,19.258,15.888,19.258C767.822,198.542,780.819,197.456,780.819,197.456z M774.199,171.942
		c0-14.443-4.695-19.738-15.167-19.738c-10.351,0-16.128,5.656-16.128,19.738H774.199z"/>
	<g>
		<g opacity="0.8">
			<path fill="#3E4651" d="M199.836,102.735C149.441,72.807,83.07,58.596,83.07,58.596l75.092-30.148l75.25,30.148l51.201,63.221
				l-2.237,83.703C282.376,205.52,250.224,132.663,199.836,102.735z"/>
		</g>
		<g opacity="0.8">
			<path fill="#2FAA60" d="M229.869,187.086c12.965-57.15,3.543-128.49,3.543-128.49l51.201,63.221l-2.237,83.703l-41.889,72.943
				l-82.326,18.521C158.162,296.985,216.903,244.245,229.869,187.086z"/>
		</g>
		<g opacity="0.8">
			<path fill="#3E4651" d="M116.646,102.735c50.396-29.928,116.767-44.139,116.767-44.139L158.32,28.448L83.07,58.596
				l-51.201,63.221l2.238,83.703C34.107,205.52,66.259,132.663,116.646,102.735z"/>
		</g>
		<g opacity="0.8">
			<path fill="#2FAA60" d="M86.456,187.086c-12.966-57.15-3.545-128.49-3.545-128.49L31.71,121.817l2.238,83.703l41.889,72.943
				l82.326,18.521C158.162,296.985,99.421,244.245,86.456,187.086z"/>
		</g>
		<g opacity="0.8">
			<path fill="#3E4651" d="M156.479,241.907C98.065,237.297,34.107,205.52,34.107,205.52l41.729,72.943l82.326,18.521l82.326-18.521
				l41.889-72.943C282.376,205.52,214.907,246.514,156.479,241.907z"/>
		</g>
	</g>
</g>
</svg>
